<svg xmlns="http://www.w3.org/2000/svg" viewBox="0 0 100 100">
  <defs>
    <linearGradient id="petal1" x1="0%" y1="0%" x2="100%" y2="100%">
      <stop offset="0%" style="stop-color:#FFD700"/>
      <stop offset="100%" style="stop-color:#FFA500"/>
    </linearGradient>
    <linearGradient id="petal2" x1="0%" y1="0%" x2="100%" y2="100%">
      <stop offset="0%" style="stop-color:#FF4500"/>
      <stop offset="100%" style="stop-color:#FF0000"/>
    </linearGradient>
    <linearGradient id="petal3" x1="0%" y1="0%" x2="100%" y2="100%">
      <stop offset="0%" style="stop-color:#98FB98"/>
      <stop offset="100%" style="stop-color:#32CD32"/>
    </linearGradient>
    <linearGradient id="petal4" x1="0%" y1="0%" x2="100%" y2="100%">
      <stop offset="0%" style="stop-color:#87CEEB"/>
      <stop offset="100%" style="stop-color:#4169E1"/>
    </linearGradient>
  </defs>
  
  <!-- Petals -->
  <path d="M50 10 C60 25, 75 40, 50 50 C25 40, 40 25, 50 10" fill="url(#petal1)" transform="rotate(0, 50, 50)"/>
  <path d="M50 10 C60 25, 75 40, 50 50 C25 40, 40 25, 50 10" fill="url(#petal2)" transform="rotate(60, 50, 50)"/>
  <path d="M50 10 C60 25, 75 40, 50 50 C25 40, 40 25, 50 10" fill="url(#petal3)" transform="rotate(120, 50, 50)"/>
  <path d="M50 10 C60 25, 75 40, 50 50 C25 40, 40 25, 50 10" fill="url(#petal4)" transform="rotate(180, 50, 50)"/>
  <path d="M50 10 C60 25, 75 40, 50 50 C25 40, 40 25, 50 10" fill="url(#petal1)" transform="rotate(240, 50, 50)"/>
  <path d="M50 10 C60 25, 75 40, 50 50 C25 40, 40 25, 50 10" fill="url(#petal2)" transform="rotate(300, 50, 50)"/>
  
  <!-- Center -->
  <circle cx="50" cy="50" r="8" fill="#FF0000"/>
</svg>